<svg xmlns="http://www.w3.org/2000/svg" xmlns:xlink="http://www.w3.org/1999/xlink" width="500" zoomAndPan="magnify" viewBox="0 0 375 374.999991" height="500" preserveAspectRatio="xMidYMid meet" version="1.0"><rect x="-37.5" width="450" fill="#8a2be2" y="-37.499999" height="449.999989" fill-opacity="1"/><path fill="#fffdf8" d="M 161.449219 243 C 145.695312 267.140625 119.296875 297.691406 84.167969 297.691406 C 67.5625 297.691406 51.59375 290.855469 51.59375 261.160156 C 51.59375 185.53125 154.851562 68.457031 250.65625 68.457031 C 305.160156 68.457031 326.875 106.273438 326.875 149.214844 C 326.875 204.332031 291.109375 267.355469 255.554688 267.355469 C 244.269531 267.355469 238.734375 261.160156 238.734375 251.332031 C 238.734375 248.769531 239.160156 245.992188 240.011719 243 C 227.875 263.722656 204.457031 282.953125 182.527344 282.953125 C 166.558594 282.953125 158.46875 272.910156 158.46875 258.8125 C 158.46875 253.683594 159.535156 248.34375 161.449219 243 Z M 290.898438 147.722656 C 290.898438 160.234375 283.515625 166.492188 275.257812 166.492188 C 266.875 166.492188 259.617188 160.234375 259.617188 147.722656 C 259.617188 135.210938 266.875 128.953125 275.257812 128.953125 C 283.515625 128.953125 290.898438 135.210938 290.898438 147.722656 Z M 243.976562 147.722656 C 243.976562 160.234375 236.59375 166.492188 228.335938 166.492188 C 219.953125 166.492188 212.695312 160.234375 212.695312 147.722656 C 212.695312 135.210938 219.953125 128.953125 228.335938 128.953125 C 236.59375 128.953125 243.976562 135.210938 243.976562 147.722656 Z M 243.976562 147.722656 " fill-opacity="1" fill-rule="evenodd"/></svg>